<svg width="312" height="222" viewBox="0 0 312 222" fill="none" xmlns="http://www.w3.org/2000/svg">
<path fill-rule="evenodd" clip-rule="evenodd" d="M157 5H307V193H288V198H307H312V193V5V0H307H157H152V5V24H157V5Z" fill="black"/>
<path fill-rule="evenodd" clip-rule="evenodd" d="M283 29H133V69H128V29V24H133H283H288V29V217V222H283H133H128V217V177H133V217H283V29Z" fill="black"/>
<path d="M34.048 119.032L25.728 102.392H54.144V119.032H34.048ZM4.48 65.272H65.024V80.376H22.528V155H4.48V65.272ZM128.483 91V155.384H110.947V91H128.483ZM101.603 138.872L107.747 150.008V150.136C103.31 154.061 97.8057 156.024 91.235 156.024C80.8243 156.024 73.443 153.208 69.091 147.576C65.0803 142.541 63.075 134.52 63.075 123.512V91H80.611V123.512C80.611 125.816 80.6537 128.035 80.739 130.168C80.9097 132.301 81.379 134.179 82.147 135.8C83.0003 137.421 84.2803 138.744 85.987 139.768C87.6937 140.707 90.1257 141.176 93.283 141.176C94.7337 141.176 96.1417 140.963 97.507 140.536C98.8723 140.109 100.152 139.555 101.347 138.872H101.603ZM167.703 116.984C170.519 117.923 173.079 118.904 175.383 119.928C177.772 120.867 179.82 122.019 181.527 123.384C183.319 124.749 184.684 126.413 185.623 128.376C186.647 130.253 187.159 132.515 187.159 135.16V135.288C187.159 141.773 184.983 146.851 180.631 150.52C176.364 154.189 170.348 156.024 162.583 156.024C157.719 156.024 152.94 155.213 148.247 153.592C143.554 151.885 139.159 149.496 135.063 146.424L134.935 146.296L135.063 146.168L143.767 132.472L143.895 132.6C146.455 135.331 149.356 137.421 152.599 138.872C155.842 140.237 159.298 140.92 162.967 140.92C168.002 140.92 170.519 139.299 170.519 136.056C170.519 134.52 169.708 133.368 168.087 132.6C166.466 131.832 164.546 131.107 162.327 130.424C161.9 130.253 161.474 130.168 161.047 130.168C160.706 130.083 160.322 129.955 159.895 129.784C157.335 129.101 154.775 128.376 152.215 127.608C149.655 126.755 147.351 125.645 145.303 124.28C143.255 122.829 141.548 121.037 140.183 118.904C138.903 116.685 138.263 113.869 138.263 110.456V110.2C138.263 107.213 138.818 104.483 139.927 102.008C141.036 99.5333 142.615 97.4 144.663 95.608C146.711 93.816 149.186 92.4507 152.087 91.512C154.988 90.488 158.188 89.976 161.687 89.976C165.783 89.976 169.922 90.616 174.103 91.896C178.284 93.0907 182.167 94.8827 185.751 97.272V97.528L177.943 111.736L177.815 111.608C175.852 109.645 173.42 108.109 170.519 107C167.618 105.805 164.546 105.208 161.303 105.208C160.706 105.208 160.023 105.251 159.255 105.336C158.487 105.421 157.762 105.635 157.079 105.976C156.482 106.317 155.97 106.787 155.543 107.384C155.116 107.896 154.903 108.664 154.903 109.688C154.903 110.456 155.244 111.181 155.927 111.864C156.61 112.461 157.463 113.059 158.487 113.656C159.596 114.168 160.791 114.68 162.071 115.192C163.436 115.704 164.759 116.173 166.039 116.6C166.295 116.6 166.551 116.643 166.807 116.728C167.148 116.813 167.447 116.899 167.703 116.984ZM225.59 89.976C230.113 89.976 234.379 90.872 238.39 92.664C242.401 94.3707 245.899 96.7173 248.886 99.704C251.873 102.691 254.219 106.189 255.926 110.2C257.718 114.211 258.614 118.52 258.614 123.128C258.614 125.603 258.358 127.992 257.846 130.296L257.718 130.552H225.206L217.014 117.496H241.334C240.139 113.912 238.134 110.968 235.318 108.664C232.587 106.36 229.345 105.208 225.59 105.208C223.286 105.208 221.11 105.677 219.062 106.616C217.014 107.555 215.222 108.835 213.686 110.456C212.235 111.992 211.083 113.869 210.23 116.088C209.377 118.221 208.95 120.568 208.95 123.128C208.95 125.091 209.334 127.139 210.102 129.272C210.87 131.32 211.979 133.197 213.43 134.904C214.881 136.611 216.63 138.061 218.678 139.256C220.726 140.365 223.03 140.92 225.59 140.92C227.894 140.92 229.985 140.621 231.862 140.024C233.825 139.341 235.659 137.891 237.366 135.672L237.494 135.544L237.75 135.672L252.598 142.2L252.342 142.456C249.27 146.723 245.345 150.051 240.566 152.44C235.873 154.829 230.881 156.024 225.59 156.024C220.982 156.024 216.63 155.171 212.534 153.464C208.523 151.757 205.025 149.411 202.038 146.424C199.051 143.437 196.662 139.939 194.87 135.928C193.163 131.917 192.31 127.651 192.31 123.128C192.31 118.52 193.163 114.211 194.87 110.2C196.662 106.189 199.051 102.691 202.038 99.704C205.025 96.7173 208.523 94.3707 212.534 92.664C216.63 90.872 220.982 89.976 225.59 89.976Z" fill="black"/>
</svg>
